<svg xmlns="http://www.w3.org/2000/svg" xmlns:xlink="http://www.w3.org/1999/xlink" width="1099" zoomAndPan="magnify" viewBox="0 0 824.25 351.74999" height="469" preserveAspectRatio="xMidYMid meet" version="1.0"><defs><g/><clipPath id="5ba989ff59"><path d="M 0 0.0351562 L 823.5 0.0351562 L 823.5 351.464844 L 0 351.464844 Z M 0 0.0351562 " clip-rule="nonzero"/></clipPath><clipPath id="f24e69e27c"><path d="M 75.195312 74.972656 L 747 74.972656 L 747 272 L 75.195312 272 Z M 75.195312 74.972656 " clip-rule="nonzero"/></clipPath><clipPath id="de4874100f"><path d="M 102.921875 74.972656 L 720.582031 74.972656 C 735.894531 74.972656 748.304688 87.386719 748.304688 102.699219 L 748.304688 243.984375 C 748.304688 259.292969 735.894531 271.707031 720.582031 271.707031 L 102.921875 271.707031 C 87.609375 271.707031 75.195312 259.292969 75.195312 243.984375 L 75.195312 102.699219 C 75.195312 87.386719 87.609375 74.972656 102.921875 74.972656 " clip-rule="nonzero"/></clipPath><clipPath id="fc4fa72b1d"><path d="M 75.195312 74.972656 L 748.082031 74.972656 L 748.082031 272.042969 L 75.195312 272.042969 Z M 75.195312 74.972656 " clip-rule="nonzero"/></clipPath><clipPath id="16e3d34a9c"><path d="M 102.910156 74.972656 L 720.367188 74.972656 C 735.675781 74.972656 748.082031 87.40625 748.082031 102.746094 L 748.082031 244.269531 C 748.082031 259.609375 735.675781 272.042969 720.367188 272.042969 L 102.910156 272.042969 C 87.605469 272.042969 75.195312 259.609375 75.195312 244.269531 L 75.195312 102.746094 C 75.195312 87.40625 87.605469 74.972656 102.910156 74.972656 " clip-rule="nonzero"/></clipPath></defs><g clip-path="url(#5ba989ff59)"><path fill="#ffffff" d="M 0 0.0351562 L 824.25 0.0351562 L 824.25 359.707031 L 0 359.707031 Z M 0 0.0351562 " fill-opacity="1" fill-rule="nonzero"/><path fill="#ffffff" d="M 0 0.0351562 L 823.5 0.0351562 L 823.5 351.464844 L 0 351.464844 Z M 0 0.0351562 " fill-opacity="1" fill-rule="nonzero"/></g><g clip-path="url(#f24e69e27c)"><g clip-path="url(#de4874100f)"><path fill="#ffffff" d="M 75.195312 74.972656 L 746.632812 74.972656 L 746.632812 272.230469 L 75.195312 272.230469 Z M 75.195312 74.972656 " fill-opacity="1" fill-rule="nonzero"/></g></g><g clip-path="url(#fc4fa72b1d)"><g clip-path="url(#16e3d34a9c)"><path stroke-linecap="butt" transform="matrix(0.749084, 0, 0, 0.750611, 75.195496, 74.973104)" fill="none" stroke-linejoin="miter" d="M 36.998091 -0.000596623 L 861.28138 -0.000596623 C 881.717811 -0.000596623 898.279716 16.564025 898.279716 37.000489 L 898.279716 225.544701 C 898.279716 245.981166 881.717811 262.545787 861.28138 262.545787 L 36.998091 262.545787 C 16.566875 262.545787 -0.00024486 245.981166 -0.00024486 225.544701 L -0.00024486 37.000489 C -0.00024486 16.564025 16.566875 -0.000596623 36.998091 -0.000596623 " stroke="#09afb1" stroke-width="18" stroke-opacity="1" stroke-miterlimit="4"/></g></g><g fill="#000000" fill-opacity="1"><g transform="translate(112.107362, 232.384936)"><g><path d="M 22.375 0.953125 C 19.289062 0.953125 16.816406 -0.00390625 14.953125 -1.921875 C 13.085938 -3.835938 12.15625 -6.34375 12.15625 -9.4375 L 12.15625 -102.953125 C 12.15625 -106.035156 13.03125 -108.429688 14.78125 -110.140625 C 16.539062 -111.847656 18.96875 -112.703125 22.0625 -112.703125 L 78.171875 -112.703125 C 84.671875 -112.703125 87.921875 -109.929688 87.921875 -104.390625 C 87.921875 -98.953125 84.671875 -96.234375 78.171875 -96.234375 L 32.453125 -96.234375 L 32.453125 -65.546875 L 74.96875 -65.546875 C 81.46875 -65.546875 84.71875 -62.773438 84.71875 -57.234375 C 84.71875 -51.796875 81.46875 -49.078125 74.96875 -49.078125 L 32.453125 -49.078125 L 32.453125 -9.4375 C 32.453125 -6.34375 31.546875 -3.835938 29.734375 -1.921875 C 27.921875 -0.00390625 25.46875 0.953125 22.375 0.953125 Z M 22.375 0.953125 "/></g></g></g><g fill="#000000" fill-opacity="1"><g transform="translate(202.582817, 232.384936)"><g><path d="M 20.296875 0.953125 C 17.421875 0.953125 15.050781 0.128906 13.1875 -1.515625 C 11.320312 -3.171875 10.390625 -5.539062 10.390625 -8.625 L 10.390625 -104.0625 C 10.390625 -107.15625 11.320312 -109.5 13.1875 -111.09375 C 15.050781 -112.695312 17.421875 -113.5 20.296875 -113.5 C 23.179688 -113.5 25.582031 -112.695312 27.5 -111.09375 C 29.414062 -109.5 30.375 -107.15625 30.375 -104.0625 L 30.375 -8.625 C 30.375 -5.539062 29.414062 -3.171875 27.5 -1.515625 C 25.582031 0.128906 23.179688 0.953125 20.296875 0.953125 Z M 20.296875 0.953125 "/></g></g></g><g fill="#000000" fill-opacity="1"><g transform="translate(243.184883, 232.384936)"><g><path d="M 20.296875 0.953125 C 17.421875 0.953125 15.050781 0.128906 13.1875 -1.515625 C 11.320312 -3.171875 10.390625 -5.539062 10.390625 -8.625 L 10.390625 -70.34375 C 10.390625 -73.425781 11.320312 -75.765625 13.1875 -77.359375 C 15.050781 -78.960938 17.421875 -79.765625 20.296875 -79.765625 C 23.179688 -79.765625 25.582031 -78.960938 27.5 -77.359375 C 29.414062 -75.765625 30.375 -73.425781 30.375 -70.34375 L 30.375 -8.625 C 30.375 -5.539062 29.414062 -3.171875 27.5 -1.515625 C 25.582031 0.128906 23.179688 0.953125 20.296875 0.953125 Z M 20.296875 -94 C 16.671875 -94 13.789062 -94.984375 11.65625 -96.953125 C 9.53125 -98.921875 8.46875 -101.503906 8.46875 -104.703125 C 8.46875 -107.898438 9.53125 -110.457031 11.65625 -112.375 C 13.789062 -114.300781 16.671875 -115.265625 20.296875 -115.265625 C 23.816406 -115.265625 26.664062 -114.300781 28.84375 -112.375 C 31.03125 -110.457031 32.125 -107.898438 32.125 -104.703125 C 32.125 -101.503906 31.054688 -98.921875 28.921875 -96.953125 C 26.796875 -94.984375 23.921875 -94 20.296875 -94 Z M 20.296875 -94 "/></g></g></g><g fill="#09afb1" fill-opacity="1"><g transform="translate(283.783175, 232.384936)"><g><path d="M 94.15625 -108.21875 C 95.863281 -111.84375 98.6875 -113.65625 102.625 -113.65625 C 105.289062 -113.65625 107.6875 -112.800781 109.8125 -111.09375 C 111.945312 -109.394531 113.015625 -107.265625 113.015625 -104.703125 C 113.015625 -103.535156 112.695312 -102.207031 112.0625 -100.71875 L 67.78125 -5.4375 C 66.820312 -3.40625 65.351562 -1.832031 63.375 -0.71875 C 61.40625 0.394531 59.300781 0.953125 57.0625 0.953125 C 54.832031 0.953125 52.726562 0.394531 50.75 -0.71875 C 48.78125 -1.832031 47.316406 -3.40625 46.359375 -5.4375 L 2.234375 -100.71875 C 1.597656 -102.207031 1.28125 -103.484375 1.28125 -104.546875 C 1.28125 -107.210938 2.367188 -109.394531 4.546875 -111.09375 C 6.734375 -112.800781 9.210938 -113.65625 11.984375 -113.65625 C 13.796875 -113.65625 15.472656 -113.203125 17.015625 -112.296875 C 18.566406 -111.390625 19.769531 -110.03125 20.625 -108.21875 L 57.390625 -26.53125 Z M 94.15625 -108.21875 "/></g></g></g><g fill="#09afb1" fill-opacity="1"><g transform="translate(397.916531, 232.384936)"><g><path d="M 20.296875 0.953125 C 17.421875 0.953125 15.050781 0.128906 13.1875 -1.515625 C 11.320312 -3.171875 10.390625 -5.539062 10.390625 -8.625 L 10.390625 -70.34375 C 10.390625 -73.425781 11.320312 -75.765625 13.1875 -77.359375 C 15.050781 -78.960938 17.421875 -79.765625 20.296875 -79.765625 C 23.179688 -79.765625 25.582031 -78.960938 27.5 -77.359375 C 29.414062 -75.765625 30.375 -73.425781 30.375 -70.34375 L 30.375 -8.625 C 30.375 -5.539062 29.414062 -3.171875 27.5 -1.515625 C 25.582031 0.128906 23.179688 0.953125 20.296875 0.953125 Z M 20.296875 -94 C 16.671875 -94 13.789062 -94.984375 11.65625 -96.953125 C 9.53125 -98.921875 8.46875 -101.503906 8.46875 -104.703125 C 8.46875 -107.898438 9.53125 -110.457031 11.65625 -112.375 C 13.789062 -114.300781 16.671875 -115.265625 20.296875 -115.265625 C 23.816406 -115.265625 26.664062 -114.300781 28.84375 -112.375 C 31.03125 -110.457031 32.125 -107.898438 32.125 -104.703125 C 32.125 -101.503906 31.054688 -98.921875 28.921875 -96.953125 C 26.796875 -94.984375 23.921875 -94 20.296875 -94 Z M 20.296875 -94 "/></g></g></g><g fill="#09afb1" fill-opacity="1"><g transform="translate(438.518597, 232.384936)"><g><path d="M 75.609375 -113.5 C 78.597656 -113.5 81.050781 -112.644531 82.96875 -110.9375 C 84.882812 -109.238281 85.84375 -107.003906 85.84375 -104.234375 L 85.84375 -8.625 C 85.84375 -5.75 84.9375 -3.457031 83.125 -1.75 C 81.3125 -0.0507812 78.914062 0.796875 75.9375 0.796875 C 72.945312 0.796875 70.546875 -0.0507812 68.734375 -1.75 C 66.921875 -3.457031 66.015625 -5.75 66.015625 -8.625 L 66.015625 -12.625 C 63.671875 -8.257812 60.285156 -4.847656 55.859375 -2.390625 C 51.441406 0.0546875 46.410156 1.28125 40.765625 1.28125 C 34.046875 1.28125 28.046875 -0.421875 22.765625 -3.828125 C 17.492188 -7.242188 13.394531 -12.066406 10.46875 -18.296875 C 7.539062 -24.535156 6.078125 -31.707031 6.078125 -39.8125 C 6.078125 -47.90625 7.539062 -54.988281 10.46875 -61.0625 C 13.394531 -67.132812 17.46875 -71.820312 22.6875 -75.125 C 27.914062 -78.4375 33.941406 -80.09375 40.765625 -80.09375 C 46.410156 -80.09375 51.414062 -78.921875 55.78125 -76.578125 C 60.15625 -74.234375 63.515625 -70.925781 65.859375 -66.65625 L 65.859375 -104.546875 C 65.859375 -107.210938 66.738281 -109.367188 68.5 -111.015625 C 70.257812 -112.671875 72.628906 -113.5 75.609375 -113.5 Z M 46.046875 -14.234375 C 52.429688 -14.234375 57.351562 -16.414062 60.8125 -20.78125 C 64.28125 -25.15625 66.015625 -31.390625 66.015625 -39.484375 C 66.015625 -47.585938 64.28125 -53.796875 60.8125 -58.109375 C 57.351562 -62.421875 52.484375 -64.578125 46.203125 -64.578125 C 39.804688 -64.578125 34.847656 -62.445312 31.328125 -58.1875 C 27.816406 -53.925781 26.0625 -47.800781 26.0625 -39.8125 C 26.0625 -31.707031 27.816406 -25.414062 31.328125 -20.9375 C 34.847656 -16.46875 39.753906 -14.234375 46.046875 -14.234375 Z M 46.046875 -14.234375 "/></g></g></g><g fill="#09afb1" fill-opacity="1"><g transform="translate(534.588841, 232.384936)"><g><path d="M 72.25 -21.421875 C 74.0625 -21.421875 75.523438 -20.726562 76.640625 -19.34375 C 77.765625 -17.957031 78.328125 -16.09375 78.328125 -13.75 C 78.328125 -10.445312 76.359375 -7.675781 72.421875 -5.4375 C 68.796875 -3.40625 64.691406 -1.773438 60.109375 -0.546875 C 55.523438 0.671875 51.15625 1.28125 47 1.28125 C 34.425781 1.28125 24.460938 -2.34375 17.109375 -9.59375 C 9.753906 -16.84375 6.078125 -26.753906 6.078125 -39.328125 C 6.078125 -47.316406 7.675781 -54.398438 10.875 -60.578125 C 14.070312 -66.765625 18.570312 -71.5625 24.375 -74.96875 C 30.1875 -78.382812 36.769531 -80.09375 44.125 -80.09375 C 51.15625 -80.09375 57.28125 -78.546875 62.5 -75.453125 C 67.726562 -72.359375 71.78125 -67.988281 74.65625 -62.34375 C 77.53125 -56.695312 78.96875 -50.035156 78.96875 -42.359375 C 78.96875 -37.773438 76.941406 -35.484375 72.890625 -35.484375 L 25.734375 -35.484375 C 26.378906 -28.128906 28.457031 -22.71875 31.96875 -19.25 C 35.488281 -15.789062 40.601562 -14.0625 47.3125 -14.0625 C 50.726562 -14.0625 53.738281 -14.488281 56.34375 -15.34375 C 58.957031 -16.195312 61.914062 -17.367188 65.21875 -18.859375 C 68.414062 -20.566406 70.757812 -21.421875 72.25 -21.421875 Z M 44.59375 -66.015625 C 39.164062 -66.015625 34.828125 -64.3125 31.578125 -60.90625 C 28.328125 -57.5 26.378906 -52.597656 25.734375 -46.203125 L 61.859375 -46.203125 C 61.648438 -52.703125 60.050781 -57.628906 57.0625 -60.984375 C 54.082031 -64.335938 49.925781 -66.015625 44.59375 -66.015625 Z M 44.59375 -66.015625 "/></g></g></g><g fill="#09afb1" fill-opacity="1"><g transform="translate(619.46952, 232.384936)"><g><path d="M 46.046875 1.28125 C 38.046875 1.28125 31.035156 -0.367188 25.015625 -3.671875 C 18.992188 -6.972656 14.332031 -11.710938 11.03125 -17.890625 C 7.726562 -24.078125 6.078125 -31.273438 6.078125 -39.484375 C 6.078125 -47.691406 7.726562 -54.859375 11.03125 -60.984375 C 14.332031 -67.109375 18.992188 -71.820312 25.015625 -75.125 C 31.035156 -78.4375 38.046875 -80.09375 46.046875 -80.09375 C 54.035156 -80.09375 61.039062 -78.4375 67.0625 -75.125 C 73.082031 -71.820312 77.71875 -67.109375 80.96875 -60.984375 C 84.21875 -54.859375 85.84375 -47.691406 85.84375 -39.484375 C 85.84375 -31.273438 84.21875 -24.078125 80.96875 -17.890625 C 77.71875 -11.710938 73.082031 -6.972656 67.0625 -3.671875 C 61.039062 -0.367188 54.035156 1.28125 46.046875 1.28125 Z M 45.875 -14.234375 C 52.375 -14.234375 57.328125 -16.363281 60.734375 -20.625 C 64.148438 -24.882812 65.859375 -31.171875 65.859375 -39.484375 C 65.859375 -47.691406 64.148438 -53.953125 60.734375 -58.265625 C 57.328125 -62.585938 52.429688 -64.75 46.046875 -64.75 C 39.648438 -64.75 34.71875 -62.585938 31.25 -58.265625 C 27.789062 -53.953125 26.0625 -47.691406 26.0625 -39.484375 C 26.0625 -31.171875 27.765625 -24.882812 31.171875 -20.625 C 34.578125 -16.363281 39.476562 -14.234375 45.875 -14.234375 Z M 45.875 -14.234375 "/></g></g></g></svg>