<svg xmlns="http://www.w3.org/2000/svg" xmlns:xlink="http://www.w3.org/1999/xlink" width="1099" zoomAndPan="magnify" viewBox="0 0 824.25 414.749983" height="553" preserveAspectRatio="xMidYMid meet" version="1.0">
<defs><g/><clipPath id="4fc5982a41"><path d="M 0 0.0625 L 823.5 0.0625 L 823.5 414.4375 L 0 414.4375 Z M 0 0.0625 " clip-rule="nonzero"/></clipPath><clipPath id="0f2fa34747"><path d="M 75.195312 75 L 747 75 L 747 272 L 75.195312 272 Z M 75.195312 75 " clip-rule="nonzero"/></clipPath><clipPath id="79a20317a8"><path d="M 102.921875 75 L 720.582031 75 C 735.894531 75 748.304688 87.414062 748.304688 102.726562 L 748.304688 244.011719 C 748.304688 259.324219 735.894531 271.734375 720.582031 271.734375 L 102.921875 271.734375 C 87.609375 271.734375 75.195312 259.324219 75.195312 244.011719 L 75.195312 102.726562 C 75.195312 87.414062 87.609375 75 102.921875 75 " clip-rule="nonzero"/></clipPath><clipPath id="4dd27b7693"><path d="M 75.195312 75 L 748.082031 75 L 748.082031 272.074219 L 75.195312 272.074219 Z M 75.195312 75 " clip-rule="nonzero"/></clipPath><clipPath id="3272a4ae8d"><path d="M 102.910156 75 L 720.367188 75 C 735.675781 75 748.082031 87.4375 748.082031 102.773438 L 748.082031 244.300781 C 748.082031 259.636719 735.675781 272.070312 720.367188 272.070312 L 102.910156 272.070312 C 87.605469 272.070312 75.195312 259.636719 75.195312 244.300781 L 75.195312 102.773438 C 75.195312 87.4375 87.605469 75 102.910156 75 " clip-rule="nonzero"/></clipPath></defs><g clip-path="url(#4fc5982a41)"><path fill="#ffffff" d="M 0 0.0625 L 824.25 0.0625 L 824.25 422.679688 L 0 422.679688 Z M 0 0.0625 " fill-opacity="1" fill-rule="nonzero"/><path fill="#ffffff" d="M 0 0.0625 L 823.5 0.0625 L 823.5 414.4375 L 0 414.4375 Z M 0 0.0625 " fill-opacity="1" fill-rule="nonzero"/></g><g clip-path="url(#0f2fa34747)"><g clip-path="url(#79a20317a8)"><path fill="#ffffff" d="M 75.195312 75 L 746.632812 75 L 746.632812 272.257812 L 75.195312 272.257812 Z M 75.195312 75 " fill-opacity="1" fill-rule="nonzero"/></g></g><g clip-path="url(#4dd27b7693)"><g clip-path="url(#3272a4ae8d)"><path stroke-linecap="butt" transform="matrix(0.749084, 0, 0, 0.750611, 75.195496, 75.001737)" fill="none" stroke-linejoin="miter" d="M 36.998091 -0.00231437 L 861.28138 -0.00231437 C 881.717811 -0.00231437 898.279716 16.567511 898.279716 36.998772 L 898.279716 225.548188 C 898.279716 245.979448 881.717811 262.54407 861.28138 262.54407 L 36.998091 262.54407 C 16.566875 262.54407 -0.00024486 245.979448 -0.00024486 225.548188 L -0.00024486 36.998772 C -0.00024486 16.567511 16.566875 -0.00231437 36.998091 -0.00231437 " stroke="#09afb1" stroke-width="18" stroke-opacity="1" stroke-miterlimit="4"/></g></g><g fill="#000000" fill-opacity="1"><g transform="translate(112.107362, 232.413569)"><g><path d="M 22.375 0.953125 C 19.289062 0.953125 16.816406 -0.00390625 14.953125 -1.921875 C 13.085938 -3.835938 12.15625 -6.34375 12.15625 -9.4375 L 12.15625 -102.953125 C 12.15625 -106.035156 13.03125 -108.429688 14.78125 -110.140625 C 16.539062 -111.847656 18.96875 -112.703125 22.0625 -112.703125 L 78.171875 -112.703125 C 84.671875 -112.703125 87.921875 -109.929688 87.921875 -104.390625 C 87.921875 -98.953125 84.671875 -96.234375 78.171875 -96.234375 L 32.453125 -96.234375 L 32.453125 -65.546875 L 74.96875 -65.546875 C 81.46875 -65.546875 84.71875 -62.773438 84.71875 -57.234375 C 84.71875 -51.796875 81.46875 -49.078125 74.96875 -49.078125 L 32.453125 -49.078125 L 32.453125 -9.4375 C 32.453125 -6.34375 31.546875 -3.835938 29.734375 -1.921875 C 27.921875 -0.00390625 25.46875 0.953125 22.375 0.953125 Z M 22.375 0.953125 "/></g></g></g><g fill="#000000" fill-opacity="1"><g transform="translate(202.582817, 232.413569)"><g><path d="M 20.296875 0.953125 C 17.421875 0.953125 15.050781 0.128906 13.1875 -1.515625 C 11.320312 -3.171875 10.390625 -5.539062 10.390625 -8.625 L 10.390625 -104.0625 C 10.390625 -107.15625 11.320312 -109.5 13.1875 -111.09375 C 15.050781 -112.695312 17.421875 -113.5 20.296875 -113.5 C 23.179688 -113.5 25.582031 -112.695312 27.5 -111.09375 C 29.414062 -109.5 30.375 -107.15625 30.375 -104.0625 L 30.375 -8.625 C 30.375 -5.539062 29.414062 -3.171875 27.5 -1.515625 C 25.582031 0.128906 23.179688 0.953125 20.296875 0.953125 Z M 20.296875 0.953125 "/></g></g></g><g fill="#000000" fill-opacity="1"><g transform="translate(243.184883, 232.413569)"><g><path d="M 20.296875 0.953125 C 17.421875 0.953125 15.050781 0.128906 13.1875 -1.515625 C 11.320312 -3.171875 10.390625 -5.539062 10.390625 -8.625 L 10.390625 -70.34375 C 10.390625 -73.425781 11.320312 -75.765625 13.1875 -77.359375 C 15.050781 -78.960938 17.421875 -79.765625 20.296875 -79.765625 C 23.179688 -79.765625 25.582031 -78.960938 27.5 -77.359375 C 29.414062 -75.765625 30.375 -73.425781 30.375 -70.34375 L 30.375 -8.625 C 30.375 -5.539062 29.414062 -3.171875 27.5 -1.515625 C 25.582031 0.128906 23.179688 0.953125 20.296875 0.953125 Z M 20.296875 -94 C 16.671875 -94 13.789062 -94.984375 11.65625 -96.953125 C 9.53125 -98.921875 8.46875 -101.503906 8.46875 -104.703125 C 8.46875 -107.898438 9.53125 -110.457031 11.65625 -112.375 C 13.789062 -114.300781 16.671875 -115.265625 20.296875 -115.265625 C 23.816406 -115.265625 26.664062 -114.300781 28.84375 -112.375 C 31.03125 -110.457031 32.125 -107.898438 32.125 -104.703125 C 32.125 -101.503906 31.054688 -98.921875 28.921875 -96.953125 C 26.796875 -94.984375 23.921875 -94 20.296875 -94 Z M 20.296875 -94 "/></g></g></g><g fill="#09afb1" fill-opacity="1"><g transform="translate(283.783175, 232.413569)"><g><path d="M 94.15625 -108.21875 C 95.863281 -111.84375 98.6875 -113.65625 102.625 -113.65625 C 105.289062 -113.65625 107.6875 -112.800781 109.8125 -111.09375 C 111.945312 -109.394531 113.015625 -107.265625 113.015625 -104.703125 C 113.015625 -103.535156 112.695312 -102.207031 112.0625 -100.71875 L 67.78125 -5.4375 C 66.820312 -3.40625 65.351562 -1.832031 63.375 -0.71875 C 61.40625 0.394531 59.300781 0.953125 57.0625 0.953125 C 54.832031 0.953125 52.726562 0.394531 50.75 -0.71875 C 48.78125 -1.832031 47.316406 -3.40625 46.359375 -5.4375 L 2.234375 -100.71875 C 1.597656 -102.207031 1.28125 -103.484375 1.28125 -104.546875 C 1.28125 -107.210938 2.367188 -109.394531 4.546875 -111.09375 C 6.734375 -112.800781 9.210938 -113.65625 11.984375 -113.65625 C 13.796875 -113.65625 15.472656 -113.203125 17.015625 -112.296875 C 18.566406 -111.390625 19.769531 -110.03125 20.625 -108.21875 L 57.390625 -26.53125 Z M 94.15625 -108.21875 "/></g></g></g><g fill="#09afb1" fill-opacity="1"><g transform="translate(397.916531, 232.413569)"><g><path d="M 20.296875 0.953125 C 17.421875 0.953125 15.050781 0.128906 13.1875 -1.515625 C 11.320312 -3.171875 10.390625 -5.539062 10.390625 -8.625 L 10.390625 -70.34375 C 10.390625 -73.425781 11.320312 -75.765625 13.1875 -77.359375 C 15.050781 -78.960938 17.421875 -79.765625 20.296875 -79.765625 C 23.179688 -79.765625 25.582031 -78.960938 27.5 -77.359375 C 29.414062 -75.765625 30.375 -73.425781 30.375 -70.34375 L 30.375 -8.625 C 30.375 -5.539062 29.414062 -3.171875 27.5 -1.515625 C 25.582031 0.128906 23.179688 0.953125 20.296875 0.953125 Z M 20.296875 -94 C 16.671875 -94 13.789062 -94.984375 11.65625 -96.953125 C 9.53125 -98.921875 8.46875 -101.503906 8.46875 -104.703125 C 8.46875 -107.898438 9.53125 -110.457031 11.65625 -112.375 C 13.789062 -114.300781 16.671875 -115.265625 20.296875 -115.265625 C 23.816406 -115.265625 26.664062 -114.300781 28.84375 -112.375 C 31.03125 -110.457031 32.125 -107.898438 32.125 -104.703125 C 32.125 -101.503906 31.054688 -98.921875 28.921875 -96.953125 C 26.796875 -94.984375 23.921875 -94 20.296875 -94 Z M 20.296875 -94 "/></g></g></g><g fill="#09afb1" fill-opacity="1"><g transform="translate(438.518597, 232.413569)"><g><path d="M 75.609375 -113.5 C 78.597656 -113.5 81.050781 -112.644531 82.96875 -110.9375 C 84.882812 -109.238281 85.84375 -107.003906 85.84375 -104.234375 L 85.84375 -8.625 C 85.84375 -5.75 84.9375 -3.457031 83.125 -1.75 C 81.3125 -0.0507812 78.914062 0.796875 75.9375 0.796875 C 72.945312 0.796875 70.546875 -0.0507812 68.734375 -1.75 C 66.921875 -3.457031 66.015625 -5.75 66.015625 -8.625 L 66.015625 -12.625 C 63.671875 -8.257812 60.285156 -4.847656 55.859375 -2.390625 C 51.441406 0.0546875 46.410156 1.28125 40.765625 1.28125 C 34.046875 1.28125 28.046875 -0.421875 22.765625 -3.828125 C 17.492188 -7.242188 13.394531 -12.066406 10.46875 -18.296875 C 7.539062 -24.535156 6.078125 -31.707031 6.078125 -39.8125 C 6.078125 -47.90625 7.539062 -54.988281 10.46875 -61.0625 C 13.394531 -67.132812 17.46875 -71.820312 22.6875 -75.125 C 27.914062 -78.4375 33.941406 -80.09375 40.765625 -80.09375 C 46.410156 -80.09375 51.414062 -78.921875 55.78125 -76.578125 C 60.15625 -74.234375 63.515625 -70.925781 65.859375 -66.65625 L 65.859375 -104.546875 C 65.859375 -107.210938 66.738281 -109.367188 68.5 -111.015625 C 70.257812 -112.671875 72.628906 -113.5 75.609375 -113.5 Z M 46.046875 -14.234375 C 52.429688 -14.234375 57.351562 -16.414062 60.8125 -20.78125 C 64.28125 -25.15625 66.015625 -31.390625 66.015625 -39.484375 C 66.015625 -47.585938 64.28125 -53.796875 60.8125 -58.109375 C 57.351562 -62.421875 52.484375 -64.578125 46.203125 -64.578125 C 39.804688 -64.578125 34.847656 -62.445312 31.328125 -58.1875 C 27.816406 -53.925781 26.0625 -47.800781 26.0625 -39.8125 C 26.0625 -31.707031 27.816406 -25.414062 31.328125 -20.9375 C 34.847656 -16.46875 39.753906 -14.234375 46.046875 -14.234375 Z M 46.046875 -14.234375 "/></g></g></g><g fill="#09afb1" fill-opacity="1"><g transform="translate(534.588841, 232.413569)"><g><path d="M 72.25 -21.421875 C 74.0625 -21.421875 75.523438 -20.726562 76.640625 -19.34375 C 77.765625 -17.957031 78.328125 -16.09375 78.328125 -13.75 C 78.328125 -10.445312 76.359375 -7.675781 72.421875 -5.4375 C 68.796875 -3.40625 64.691406 -1.773438 60.109375 -0.546875 C 55.523438 0.671875 51.15625 1.28125 47 1.28125 C 34.425781 1.28125 24.460938 -2.34375 17.109375 -9.59375 C 9.753906 -16.84375 6.078125 -26.753906 6.078125 -39.328125 C 6.078125 -47.316406 7.675781 -54.398438 10.875 -60.578125 C 14.070312 -66.765625 18.570312 -71.5625 24.375 -74.96875 C 30.1875 -78.382812 36.769531 -80.09375 44.125 -80.09375 C 51.15625 -80.09375 57.28125 -78.546875 62.5 -75.453125 C 67.726562 -72.359375 71.78125 -67.988281 74.65625 -62.34375 C 77.53125 -56.695312 78.96875 -50.035156 78.96875 -42.359375 C 78.96875 -37.773438 76.941406 -35.484375 72.890625 -35.484375 L 25.734375 -35.484375 C 26.378906 -28.128906 28.457031 -22.71875 31.96875 -19.25 C 35.488281 -15.789062 40.601562 -14.0625 47.3125 -14.0625 C 50.726562 -14.0625 53.738281 -14.488281 56.34375 -15.34375 C 58.957031 -16.195312 61.914062 -17.367188 65.21875 -18.859375 C 68.414062 -20.566406 70.757812 -21.421875 72.25 -21.421875 Z M 44.59375 -66.015625 C 39.164062 -66.015625 34.828125 -64.3125 31.578125 -60.90625 C 28.328125 -57.5 26.378906 -52.597656 25.734375 -46.203125 L 61.859375 -46.203125 C 61.648438 -52.703125 60.050781 -57.628906 57.0625 -60.984375 C 54.082031 -64.335938 49.925781 -66.015625 44.59375 -66.015625 Z M 44.59375 -66.015625 "/></g></g></g><g fill="#09afb1" fill-opacity="1"><g transform="translate(619.46952, 232.413569)"><g><path d="M 46.046875 1.28125 C 38.046875 1.28125 31.035156 -0.367188 25.015625 -3.671875 C 18.992188 -6.972656 14.332031 -11.710938 11.03125 -17.890625 C 7.726562 -24.078125 6.078125 -31.273438 6.078125 -39.484375 C 6.078125 -47.691406 7.726562 -54.859375 11.03125 -60.984375 C 14.332031 -67.109375 18.992188 -71.820312 25.015625 -75.125 C 31.035156 -78.4375 38.046875 -80.09375 46.046875 -80.09375 C 54.035156 -80.09375 61.039062 -78.4375 67.0625 -75.125 C 73.082031 -71.820312 77.71875 -67.109375 80.96875 -60.984375 C 84.21875 -54.859375 85.84375 -47.691406 85.84375 -39.484375 C 85.84375 -31.273438 84.21875 -24.078125 80.96875 -17.890625 C 77.71875 -11.710938 73.082031 -6.972656 67.0625 -3.671875 C 61.039062 -0.367188 54.035156 1.28125 46.046875 1.28125 Z M 45.875 -14.234375 C 52.375 -14.234375 57.328125 -16.363281 60.734375 -20.625 C 64.148438 -24.882812 65.859375 -31.171875 65.859375 -39.484375 C 65.859375 -47.691406 64.148438 -53.953125 60.734375 -58.265625 C 57.328125 -62.585938 52.429688 -64.75 46.046875 -64.75 C 39.648438 -64.75 34.71875 -62.585938 31.25 -58.265625 C 27.789062 -53.953125 26.0625 -47.691406 26.0625 -39.484375 C 26.0625 -31.171875 27.765625 -24.882812 31.171875 -20.625 C 34.578125 -16.363281 39.476562 -14.234375 45.875 -14.234375 Z M 45.875 -14.234375 "/></g></g></g><g fill="#000000" fill-opacity="1"><g transform="translate(123.093199, 328.348048)"><g><path d="M 7.671875 0.390625 C 5.628906 0.390625 4.035156 -0.164062 2.890625 -1.28125 C 1.742188 -2.394531 1.171875 -3.957031 1.171875 -5.96875 C 1.171875 -8.15625 1.878906 -9.820312 3.296875 -10.96875 C 4.722656 -12.113281 6.789062 -12.695312 9.5 -12.71875 L 14.046875 -12.796875 L 14.046875 -13.875 C 14.046875 -15.25 13.804688 -16.269531 13.328125 -16.9375 C 12.847656 -17.613281 12.0625 -17.953125 10.96875 -17.953125 C 9.957031 -17.953125 9.210938 -17.71875 8.734375 -17.25 C 8.253906 -16.789062 7.957031 -16.03125 7.84375 -14.96875 L 2.125 -15.234375 C 2.476562 -17.296875 3.414062 -18.851562 4.9375 -19.90625 C 6.46875 -20.96875 8.554688 -21.5 11.203125 -21.5 C 13.867188 -21.5 15.921875 -20.84375 17.359375 -19.53125 C 18.804688 -18.21875 19.53125 -16.351562 19.53125 -13.9375 L 19.53125 -6.25 C 19.53125 -5.0625 19.660156 -4.242188 19.921875 -3.796875 C 20.191406 -3.347656 20.640625 -3.125 21.265625 -3.125 C 21.679688 -3.125 22.085938 -3.160156 22.484375 -3.234375 L 22.484375 -0.265625 C 22.160156 -0.191406 21.867188 -0.125 21.609375 -0.0625 C 21.347656 0 21.085938 0.0507812 20.828125 0.09375 C 20.566406 0.132812 20.289062 0.164062 20 0.1875 C 19.707031 0.21875 19.363281 0.234375 18.96875 0.234375 C 17.59375 0.234375 16.578125 -0.101562 15.921875 -0.78125 C 15.265625 -1.457031 14.867188 -2.453125 14.734375 -3.765625 L 14.625 -3.765625 C 13.082031 -0.992188 10.765625 0.390625 7.671875 0.390625 Z M 14.046875 -9.78125 L 11.234375 -9.734375 C 9.960938 -9.679688 9.0625 -9.539062 8.53125 -9.3125 C 8 -9.09375 7.59375 -8.75 7.3125 -8.28125 C 7.03125 -7.8125 6.890625 -7.1875 6.890625 -6.40625 C 6.890625 -5.40625 7.117188 -4.660156 7.578125 -4.171875 C 8.046875 -3.679688 8.660156 -3.4375 9.421875 -3.4375 C 10.285156 -3.4375 11.070312 -3.671875 11.78125 -4.140625 C 12.488281 -4.609375 13.039062 -5.253906 13.4375 -6.078125 C 13.84375 -6.898438 14.046875 -7.773438 14.046875 -8.703125 Z M 14.046875 -9.78125 "/></g></g></g><g fill="#000000" fill-opacity="1"><g transform="translate(145.316903, 328.348048)"><g><path d="M 7.96875 -21.109375 L 7.96875 -9.265625 C 7.96875 -5.554688 9.210938 -3.703125 11.703125 -3.703125 C 13.035156 -3.703125 14.109375 -4.269531 14.921875 -5.40625 C 15.734375 -6.550781 16.140625 -8.015625 16.140625 -9.796875 L 16.140625 -21.109375 L 21.625 -21.109375 L 21.625 -4.71875 C 21.625 -2.925781 21.675781 -1.351562 21.78125 0 L 16.546875 0 C 16.390625 -1.875 16.3125 -3.273438 16.3125 -4.203125 L 16.21875 -4.203125 C 15.488281 -2.597656 14.5625 -1.429688 13.4375 -0.703125 C 12.3125 0.0234375 10.972656 0.390625 9.421875 0.390625 C 7.179688 0.390625 5.460938 -0.296875 4.265625 -1.671875 C 3.078125 -3.046875 2.484375 -5.054688 2.484375 -7.703125 L 2.484375 -21.109375 Z M 7.96875 -21.109375 "/></g></g></g><g fill="#000000" fill-opacity="1"><g transform="translate(169.725905, 328.348048)"><g><path d="M 8.203125 0.34375 C 6.585938 0.34375 5.34375 -0.09375 4.46875 -0.96875 C 3.59375 -1.84375 3.15625 -3.171875 3.15625 -4.953125 L 3.15625 -17.40625 L 0.484375 -17.40625 L 0.484375 -21.109375 L 3.4375 -21.109375 L 5.15625 -26.078125 L 8.59375 -26.078125 L 8.59375 -21.109375 L 12.59375 -21.109375 L 12.59375 -17.40625 L 8.59375 -17.40625 L 8.59375 -6.4375 C 8.59375 -5.414062 8.785156 -4.660156 9.171875 -4.171875 C 9.566406 -3.679688 10.171875 -3.4375 10.984375 -3.4375 C 11.410156 -3.4375 12.023438 -3.523438 12.828125 -3.703125 L 12.828125 -0.3125 C 11.472656 0.125 9.929688 0.34375 8.203125 0.34375 Z M 8.203125 0.34375 "/></g></g></g><g fill="#000000" fill-opacity="1"><g transform="translate(183.032808, 328.348048)"><g><path d="M 22.859375 -10.578125 C 22.859375 -7.148438 21.90625 -4.460938 20 -2.515625 C 18.101562 -0.578125 15.476562 0.390625 12.125 0.390625 C 8.832031 0.390625 6.25 -0.582031 4.375 -2.53125 C 2.5 -4.488281 1.5625 -7.171875 1.5625 -10.578125 C 1.5625 -13.972656 2.5 -16.640625 4.375 -18.578125 C 6.25 -20.523438 8.867188 -21.5 12.234375 -21.5 C 15.679688 -21.5 18.3125 -20.554688 20.125 -18.671875 C 21.945312 -16.796875 22.859375 -14.097656 22.859375 -10.578125 Z M 17.109375 -10.578125 C 17.109375 -13.085938 16.695312 -14.90625 15.875 -16.03125 C 15.0625 -17.164062 13.875 -17.734375 12.3125 -17.734375 C 8.976562 -17.734375 7.3125 -15.347656 7.3125 -10.578125 C 7.3125 -8.222656 7.71875 -6.429688 8.53125 -5.203125 C 9.351562 -3.972656 10.53125 -3.359375 12.0625 -3.359375 C 15.425781 -3.359375 17.109375 -5.765625 17.109375 -10.578125 Z M 17.109375 -10.578125 "/></g></g></g><g fill="#000000" fill-opacity="1"><g transform="translate(207.44181, 328.348048)"><g><path d="M 15.21875 0 L 15.21875 -11.84375 C 15.21875 -15.550781 14.148438 -17.40625 12.015625 -17.40625 C 10.910156 -17.40625 10.007812 -16.835938 9.3125 -15.703125 C 8.625 -14.578125 8.28125 -13.113281 8.28125 -11.3125 L 8.28125 0 L 2.796875 0 L 2.796875 -16.390625 C 2.796875 -17.523438 2.773438 -18.453125 2.734375 -19.171875 C 2.703125 -19.890625 2.671875 -20.535156 2.640625 -21.109375 L 7.859375 -21.109375 C 7.898438 -20.867188 7.953125 -20.210938 8.015625 -19.140625 C 8.085938 -18.066406 8.125 -17.328125 8.125 -16.921875 L 8.203125 -16.921875 C 8.878906 -18.535156 9.71875 -19.707031 10.71875 -20.4375 C 11.726562 -21.164062 12.9375 -21.53125 14.34375 -21.53125 C 17.570312 -21.53125 19.53125 -19.992188 20.21875 -16.921875 L 20.328125 -16.921875 C 21.046875 -18.554688 21.90625 -19.734375 22.90625 -20.453125 C 23.914062 -21.171875 25.191406 -21.53125 26.734375 -21.53125 C 28.796875 -21.53125 30.363281 -20.828125 31.4375 -19.421875 C 32.519531 -18.023438 33.0625 -16.019531 33.0625 -13.40625 L 33.0625 0 L 27.609375 0 L 27.609375 -11.84375 C 27.609375 -15.550781 26.546875 -17.40625 24.421875 -17.40625 C 23.347656 -17.40625 22.46875 -16.890625 21.78125 -15.859375 C 21.101562 -14.828125 20.734375 -13.398438 20.671875 -11.578125 L 20.671875 0 Z M 15.21875 0 "/></g></g></g><g fill="#000000" fill-opacity="1"><g transform="translate(242.972418, 328.348048)"><g><path d="M 7.671875 0.390625 C 5.628906 0.390625 4.035156 -0.164062 2.890625 -1.28125 C 1.742188 -2.394531 1.171875 -3.957031 1.171875 -5.96875 C 1.171875 -8.15625 1.878906 -9.820312 3.296875 -10.96875 C 4.722656 -12.113281 6.789062 -12.695312 9.5 -12.71875 L 14.046875 -12.796875 L 14.046875 -13.875 C 14.046875 -15.25 13.804688 -16.269531 13.328125 -16.9375 C 12.847656 -17.613281 12.0625 -17.953125 10.96875 -17.953125 C 9.957031 -17.953125 9.210938 -17.71875 8.734375 -17.25 C 8.253906 -16.789062 7.957031 -16.03125 7.84375 -14.96875 L 2.125 -15.234375 C 2.476562 -17.296875 3.414062 -18.851562 4.9375 -19.90625 C 6.46875 -20.96875 8.554688 -21.5 11.203125 -21.5 C 13.867188 -21.5 15.921875 -20.84375 17.359375 -19.53125 C 18.804688 -18.21875 19.53125 -16.351562 19.53125 -13.9375 L 19.53125 -6.25 C 19.53125 -5.0625 19.660156 -4.242188 19.921875 -3.796875 C 20.191406 -3.347656 20.640625 -3.125 21.265625 -3.125 C 21.679688 -3.125 22.085938 -3.160156 22.484375 -3.234375 L 22.484375 -0.265625 C 22.160156 -0.191406 21.867188 -0.125 21.609375 -0.0625 C 21.347656 0 21.085938 0.0507812 20.828125 0.09375 C 20.566406 0.132812 20.289062 0.164062 20 0.1875 C 19.707031 0.21875 19.363281 0.234375 18.96875 0.234375 C 17.59375 0.234375 16.578125 -0.101562 15.921875 -0.78125 C 15.265625 -1.457031 14.867188 -2.453125 14.734375 -3.765625 L 14.625 -3.765625 C 13.082031 -0.992188 10.765625 0.390625 7.671875 0.390625 Z M 14.046875 -9.78125 L 11.234375 -9.734375 C 9.960938 -9.679688 9.0625 -9.539062 8.53125 -9.3125 C 8 -9.09375 7.59375 -8.75 7.3125 -8.28125 C 7.03125 -7.8125 6.890625 -7.1875 6.890625 -6.40625 C 6.890625 -5.40625 7.117188 -4.660156 7.578125 -4.171875 C 8.046875 -3.679688 8.660156 -3.4375 9.421875 -3.4375 C 10.285156 -3.4375 11.070312 -3.671875 11.78125 -4.140625 C 12.488281 -4.609375 13.039062 -5.253906 13.4375 -6.078125 C 13.84375 -6.898438 14.046875 -7.773438 14.046875 -8.703125 Z M 14.046875 -9.78125 "/></g></g></g><g fill="#000000" fill-opacity="1"><g transform="translate(265.196122, 328.348048)"><g><path d="M 8.203125 0.34375 C 6.585938 0.34375 5.34375 -0.09375 4.46875 -0.96875 C 3.59375 -1.84375 3.15625 -3.171875 3.15625 -4.953125 L 3.15625 -17.40625 L 0.484375 -17.40625 L 0.484375 -21.109375 L 3.4375 -21.109375 L 5.15625 -26.078125 L 8.59375 -26.078125 L 8.59375 -21.109375 L 12.59375 -21.109375 L 12.59375 -17.40625 L 8.59375 -17.40625 L 8.59375 -6.4375 C 8.59375 -5.414062 8.785156 -4.660156 9.171875 -4.171875 C 9.566406 -3.679688 10.171875 -3.4375 10.984375 -3.4375 C 11.410156 -3.4375 12.023438 -3.523438 12.828125 -3.703125 L 12.828125 -0.3125 C 11.472656 0.125 9.929688 0.34375 8.203125 0.34375 Z M 8.203125 0.34375 "/></g></g></g><g fill="#000000" fill-opacity="1"><g transform="translate(278.503025, 328.348048)"><g><path d="M 11.4375 0.390625 C 8.257812 0.390625 5.816406 -0.546875 4.109375 -2.421875 C 2.410156 -4.304688 1.5625 -7.050781 1.5625 -10.65625 C 1.5625 -14.144531 2.425781 -16.820312 4.15625 -18.6875 C 5.882812 -20.5625 8.335938 -21.5 11.515625 -21.5 C 14.546875 -21.5 16.859375 -20.492188 18.453125 -18.484375 C 20.054688 -16.472656 20.859375 -13.53125 20.859375 -9.65625 L 20.859375 -9.5 L 7.3125 -9.5 C 7.3125 -7.445312 7.691406 -5.894531 8.453125 -4.84375 C 9.222656 -3.800781 10.304688 -3.28125 11.703125 -3.28125 C 13.648438 -3.28125 14.875 -4.117188 15.375 -5.796875 L 20.546875 -5.34375 C 19.054688 -1.519531 16.019531 0.390625 11.4375 0.390625 Z M 11.4375 -18.046875 C 10.144531 -18.046875 9.148438 -17.597656 8.453125 -16.703125 C 7.765625 -15.804688 7.398438 -14.550781 7.359375 -12.9375 L 15.546875 -12.9375 C 15.441406 -14.644531 15.03125 -15.921875 14.3125 -16.765625 C 13.601562 -17.617188 12.644531 -18.046875 11.4375 -18.046875 Z M 11.4375 -18.046875 "/></g></g></g><g fill="#000000" fill-opacity="1"><g transform="translate(300.726729, 328.348048)"><g/></g></g><g fill="#000000" fill-opacity="1"><g transform="translate(311.828828, 328.348048)"><g><path d="M 5.515625 8.296875 C 4.203125 8.296875 3.050781 8.210938 2.0625 8.046875 L 2.0625 4.140625 C 2.757812 4.242188 3.394531 4.296875 3.96875 4.296875 C 4.738281 4.296875 5.378906 4.171875 5.890625 3.921875 C 6.410156 3.671875 6.875 3.257812 7.28125 2.6875 C 7.695312 2.113281 8.160156 1.144531 8.671875 -0.21875 L 0.3125 -21.109375 L 6.109375 -21.109375 L 9.421875 -11.21875 C 9.941406 -9.800781 10.597656 -7.628906 11.390625 -4.703125 L 11.890625 -6.5625 L 13.15625 -11.140625 L 16.28125 -21.109375 L 22.015625 -21.109375 L 13.65625 1.109375 C 12.539062 3.816406 11.378906 5.691406 10.171875 6.734375 C 8.972656 7.773438 7.421875 8.296875 5.515625 8.296875 Z M 5.515625 8.296875 "/></g></g></g><g fill="#000000" fill-opacity="1"><g transform="translate(334.052532, 328.348048)"><g><path d="M 22.859375 -10.578125 C 22.859375 -7.148438 21.90625 -4.460938 20 -2.515625 C 18.101562 -0.578125 15.476562 0.390625 12.125 0.390625 C 8.832031 0.390625 6.25 -0.582031 4.375 -2.53125 C 2.5 -4.488281 1.5625 -7.171875 1.5625 -10.578125 C 1.5625 -13.972656 2.5 -16.640625 4.375 -18.578125 C 6.25 -20.523438 8.867188 -21.5 12.234375 -21.5 C 15.679688 -21.5 18.3125 -20.554688 20.125 -18.671875 C 21.945312 -16.796875 22.859375 -14.097656 22.859375 -10.578125 Z M 17.109375 -10.578125 C 17.109375 -13.085938 16.695312 -14.90625 15.875 -16.03125 C 15.0625 -17.164062 13.875 -17.734375 12.3125 -17.734375 C 8.976562 -17.734375 7.3125 -15.347656 7.3125 -10.578125 C 7.3125 -8.222656 7.71875 -6.429688 8.53125 -5.203125 C 9.351562 -3.972656 10.53125 -3.359375 12.0625 -3.359375 C 15.425781 -3.359375 17.109375 -5.765625 17.109375 -10.578125 Z M 17.109375 -10.578125 "/></g></g></g><g fill="#000000" fill-opacity="1"><g transform="translate(358.461534, 328.348048)"><g><path d="M 7.96875 -21.109375 L 7.96875 -9.265625 C 7.96875 -5.554688 9.210938 -3.703125 11.703125 -3.703125 C 13.035156 -3.703125 14.109375 -4.269531 14.921875 -5.40625 C 15.734375 -6.550781 16.140625 -8.015625 16.140625 -9.796875 L 16.140625 -21.109375 L 21.625 -21.109375 L 21.625 -4.71875 C 21.625 -2.925781 21.675781 -1.351562 21.78125 0 L 16.546875 0 C 16.390625 -1.875 16.3125 -3.273438 16.3125 -4.203125 L 16.21875 -4.203125 C 15.488281 -2.597656 14.5625 -1.429688 13.4375 -0.703125 C 12.3125 0.0234375 10.972656 0.390625 9.421875 0.390625 C 7.179688 0.390625 5.460938 -0.296875 4.265625 -1.671875 C 3.078125 -3.046875 2.484375 -5.054688 2.484375 -7.703125 L 2.484375 -21.109375 Z M 7.96875 -21.109375 "/></g></g></g><g fill="#000000" fill-opacity="1"><g transform="translate(382.870536, 328.348048)"><g><path d="M 2.796875 0 L 2.796875 -16.15625 C 2.796875 -17.3125 2.773438 -18.273438 2.734375 -19.046875 C 2.703125 -19.828125 2.671875 -20.515625 2.640625 -21.109375 L 7.859375 -21.109375 C 7.898438 -20.878906 7.953125 -20.164062 8.015625 -18.96875 C 8.085938 -17.78125 8.125 -16.992188 8.125 -16.609375 L 8.203125 -16.609375 C 8.734375 -18.085938 9.207031 -19.128906 9.625 -19.734375 C 10.039062 -20.335938 10.535156 -20.785156 11.109375 -21.078125 C 11.679688 -21.378906 12.394531 -21.53125 13.25 -21.53125 C 13.957031 -21.53125 14.523438 -21.429688 14.953125 -21.234375 L 14.953125 -16.640625 C 14.066406 -16.835938 13.285156 -16.9375 12.609375 -16.9375 C 11.242188 -16.9375 10.179688 -16.382812 9.421875 -15.28125 C 8.660156 -14.175781 8.28125 -12.535156 8.28125 -10.359375 L 8.28125 0 Z M 2.796875 0 "/></g></g></g><g fill="#000000" fill-opacity="1"><g transform="translate(398.421288, 328.348048)"><g/></g></g><g fill="#000000" fill-opacity="1"><g transform="translate(409.523399, 328.348048)"><g><path d="M 14.265625 0 L 7.703125 0 L 0.15625 -21.109375 L 5.953125 -21.109375 L 9.640625 -9.3125 C 9.835938 -8.65625 10.300781 -7.03125 11.03125 -4.4375 C 11.15625 -4.96875 11.421875 -5.898438 11.828125 -7.234375 C 12.234375 -8.578125 13.726562 -13.203125 16.3125 -21.109375 L 22.046875 -21.109375 Z M 14.265625 0 "/></g></g></g><g fill="#000000" fill-opacity="1"><g transform="translate(431.747103, 328.348048)"><g><path d="M 2.796875 -24.921875 L 2.796875 -28.96875 L 8.28125 -28.96875 L 8.28125 -24.921875 Z M 2.796875 0 L 2.796875 -21.109375 L 8.28125 -21.109375 L 8.28125 0 Z M 2.796875 0 "/></g></g></g><g fill="#000000" fill-opacity="1"><g transform="translate(442.849214, 328.348048)"><g><path d="M 16.46875 0 C 16.414062 -0.195312 16.351562 -0.6875 16.28125 -1.46875 C 16.207031 -2.257812 16.171875 -2.914062 16.171875 -3.4375 L 16.09375 -3.4375 C 14.914062 -0.882812 12.664062 0.390625 9.34375 0.390625 C 6.882812 0.390625 4.984375 -0.566406 3.640625 -2.484375 C 2.304688 -4.398438 1.640625 -7.082031 1.640625 -10.53125 C 1.640625 -14.03125 2.34375 -16.734375 3.75 -18.640625 C 5.164062 -20.546875 7.171875 -21.5 9.765625 -21.5 C 11.253906 -21.5 12.539062 -21.1875 13.625 -20.5625 C 14.71875 -19.945312 15.554688 -19.019531 16.140625 -17.78125 L 16.171875 -17.78125 L 16.140625 -21.25 L 16.140625 -28.96875 L 21.625 -28.96875 L 21.625 -4.609375 C 21.625 -3.304688 21.675781 -1.769531 21.78125 0 Z M 16.21875 -10.671875 C 16.21875 -12.953125 15.835938 -14.707031 15.078125 -15.9375 C 14.316406 -17.164062 13.191406 -17.78125 11.703125 -17.78125 C 10.234375 -17.78125 9.140625 -17.179688 8.421875 -15.984375 C 7.710938 -14.796875 7.359375 -12.976562 7.359375 -10.53125 C 7.359375 -5.75 8.796875 -3.359375 11.671875 -3.359375 C 13.117188 -3.359375 14.238281 -3.988281 15.03125 -5.25 C 15.820312 -6.519531 16.21875 -8.328125 16.21875 -10.671875 Z M 16.21875 -10.671875 "/></g></g></g><g fill="#000000" fill-opacity="1"><g transform="translate(467.258216, 328.348048)"><g><path d="M 11.4375 0.390625 C 8.257812 0.390625 5.816406 -0.546875 4.109375 -2.421875 C 2.410156 -4.304688 1.5625 -7.050781 1.5625 -10.65625 C 1.5625 -14.144531 2.425781 -16.820312 4.15625 -18.6875 C 5.882812 -20.5625 8.335938 -21.5 11.515625 -21.5 C 14.546875 -21.5 16.859375 -20.492188 18.453125 -18.484375 C 20.054688 -16.472656 20.859375 -13.53125 20.859375 -9.65625 L 20.859375 -9.5 L 7.3125 -9.5 C 7.3125 -7.445312 7.691406 -5.894531 8.453125 -4.84375 C 9.222656 -3.800781 10.304688 -3.28125 11.703125 -3.28125 C 13.648438 -3.28125 14.875 -4.117188 15.375 -5.796875 L 20.546875 -5.34375 C 19.054688 -1.519531 16.019531 0.390625 11.4375 0.390625 Z M 11.4375 -18.046875 C 10.144531 -18.046875 9.148438 -17.597656 8.453125 -16.703125 C 7.765625 -15.804688 7.398438 -14.550781 7.359375 -12.9375 L 15.546875 -12.9375 C 15.441406 -14.644531 15.03125 -15.921875 14.3125 -16.765625 C 13.601562 -17.617188 12.644531 -18.046875 11.4375 -18.046875 Z M 11.4375 -18.046875 "/></g></g></g><g fill="#000000" fill-opacity="1"><g transform="translate(489.48192, 328.348048)"><g><path d="M 22.859375 -10.578125 C 22.859375 -7.148438 21.90625 -4.460938 20 -2.515625 C 18.101562 -0.578125 15.476562 0.390625 12.125 0.390625 C 8.832031 0.390625 6.25 -0.582031 4.375 -2.53125 C 2.5 -4.488281 1.5625 -7.171875 1.5625 -10.578125 C 1.5625 -13.972656 2.5 -16.640625 4.375 -18.578125 C 6.25 -20.523438 8.867188 -21.5 12.234375 -21.5 C 15.679688 -21.5 18.3125 -20.554688 20.125 -18.671875 C 21.945312 -16.796875 22.859375 -14.097656 22.859375 -10.578125 Z M 17.109375 -10.578125 C 17.109375 -13.085938 16.695312 -14.90625 15.875 -16.03125 C 15.0625 -17.164062 13.875 -17.734375 12.3125 -17.734375 C 8.976562 -17.734375 7.3125 -15.347656 7.3125 -10.578125 C 7.3125 -8.222656 7.71875 -6.429688 8.53125 -5.203125 C 9.351562 -3.972656 10.53125 -3.359375 12.0625 -3.359375 C 15.425781 -3.359375 17.109375 -5.765625 17.109375 -10.578125 Z M 17.109375 -10.578125 "/></g></g></g><g fill="#000000" fill-opacity="1"><g transform="translate(513.890922, 328.348048)"><g/></g></g><g fill="#000000" fill-opacity="1"><g transform="translate(524.993033, 328.348048)"><g><path d="M 2.796875 -24.921875 L 2.796875 -28.96875 L 8.28125 -28.96875 L 8.28125 -24.921875 Z M 2.796875 0 L 2.796875 -21.109375 L 8.28125 -21.109375 L 8.28125 0 Z M 2.796875 0 "/></g></g></g><g fill="#000000" fill-opacity="1"><g transform="translate(536.095143, 328.348048)"><g><path d="M 16.46875 0 L 16.46875 -11.84375 C 16.46875 -15.550781 15.210938 -17.40625 12.703125 -17.40625 C 11.378906 -17.40625 10.3125 -16.835938 9.5 -15.703125 C 8.6875 -14.566406 8.28125 -13.101562 8.28125 -11.3125 L 8.28125 0 L 2.796875 0 L 2.796875 -16.390625 C 2.796875 -17.523438 2.773438 -18.453125 2.734375 -19.171875 C 2.703125 -19.890625 2.671875 -20.535156 2.640625 -21.109375 L 7.859375 -21.109375 C 7.898438 -20.867188 7.953125 -20.210938 8.015625 -19.140625 C 8.085938 -18.066406 8.125 -17.328125 8.125 -16.921875 L 8.203125 -16.921875 C 8.941406 -18.535156 9.867188 -19.707031 10.984375 -20.4375 C 12.109375 -21.164062 13.441406 -21.53125 14.984375 -21.53125 C 17.222656 -21.53125 18.941406 -20.835938 20.140625 -19.453125 C 21.335938 -18.078125 21.9375 -16.0625 21.9375 -13.40625 L 21.9375 0 Z M 16.46875 0 "/></g></g></g><g fill="#000000" fill-opacity="1"><g transform="translate(560.504145, 328.348048)"><g><path d="M 9.234375 -17.40625 L 9.234375 0 L 3.765625 0 L 3.765625 -17.40625 L 0.6875 -17.40625 L 0.6875 -21.109375 L 3.765625 -21.109375 L 3.765625 -23.328125 C 3.765625 -25.234375 4.269531 -26.648438 5.28125 -27.578125 C 6.300781 -28.503906 7.847656 -28.96875 9.921875 -28.96875 C 10.941406 -28.96875 12.097656 -28.863281 13.390625 -28.65625 L 13.390625 -25.109375 C 12.859375 -25.234375 12.320312 -25.296875 11.78125 -25.296875 C 10.84375 -25.296875 10.179688 -25.109375 9.796875 -24.734375 C 9.421875 -24.367188 9.234375 -23.71875 9.234375 -22.78125 L 9.234375 -21.109375 L 13.390625 -21.109375 L 13.390625 -17.40625 Z M 9.234375 -17.40625 "/></g></g></g><g fill="#000000" fill-opacity="1"><g transform="translate(573.811037, 328.348048)"><g><path d="M 2.796875 0 L 2.796875 -28.96875 L 8.28125 -28.96875 L 8.28125 0 Z M 2.796875 0 "/></g></g></g><g fill="#000000" fill-opacity="1"><g transform="translate(584.913148, 328.348048)"><g><path d="M 7.96875 -21.109375 L 7.96875 -9.265625 C 7.96875 -5.554688 9.210938 -3.703125 11.703125 -3.703125 C 13.035156 -3.703125 14.109375 -4.269531 14.921875 -5.40625 C 15.734375 -6.550781 16.140625 -8.015625 16.140625 -9.796875 L 16.140625 -21.109375 L 21.625 -21.109375 L 21.625 -4.71875 C 21.625 -2.925781 21.675781 -1.351562 21.78125 0 L 16.546875 0 C 16.390625 -1.875 16.3125 -3.273438 16.3125 -4.203125 L 16.21875 -4.203125 C 15.488281 -2.597656 14.5625 -1.429688 13.4375 -0.703125 C 12.3125 0.0234375 10.972656 0.390625 9.421875 0.390625 C 7.179688 0.390625 5.460938 -0.296875 4.265625 -1.671875 C 3.078125 -3.046875 2.484375 -5.054688 2.484375 -7.703125 L 2.484375 -21.109375 Z M 7.96875 -21.109375 "/></g></g></g><g fill="#000000" fill-opacity="1"><g transform="translate(609.32215, 328.348048)"><g><path d="M 11.4375 0.390625 C 8.257812 0.390625 5.816406 -0.546875 4.109375 -2.421875 C 2.410156 -4.304688 1.5625 -7.050781 1.5625 -10.65625 C 1.5625 -14.144531 2.425781 -16.820312 4.15625 -18.6875 C 5.882812 -20.5625 8.335938 -21.5 11.515625 -21.5 C 14.546875 -21.5 16.859375 -20.492188 18.453125 -18.484375 C 20.054688 -16.472656 20.859375 -13.53125 20.859375 -9.65625 L 20.859375 -9.5 L 7.3125 -9.5 C 7.3125 -7.445312 7.691406 -5.894531 8.453125 -4.84375 C 9.222656 -3.800781 10.304688 -3.28125 11.703125 -3.28125 C 13.648438 -3.28125 14.875 -4.117188 15.375 -5.796875 L 20.546875 -5.34375 C 19.054688 -1.519531 16.019531 0.390625 11.4375 0.390625 Z M 11.4375 -18.046875 C 10.144531 -18.046875 9.148438 -17.597656 8.453125 -16.703125 C 7.765625 -15.804688 7.398438 -14.550781 7.359375 -12.9375 L 15.546875 -12.9375 C 15.441406 -14.644531 15.03125 -15.921875 14.3125 -16.765625 C 13.601562 -17.617188 12.644531 -18.046875 11.4375 -18.046875 Z M 11.4375 -18.046875 "/></g></g></g><g fill="#000000" fill-opacity="1"><g transform="translate(631.545854, 328.348048)"><g><path d="M 16.46875 0 L 16.46875 -11.84375 C 16.46875 -15.550781 15.210938 -17.40625 12.703125 -17.40625 C 11.378906 -17.40625 10.3125 -16.835938 9.5 -15.703125 C 8.6875 -14.566406 8.28125 -13.101562 8.28125 -11.3125 L 8.28125 0 L 2.796875 0 L 2.796875 -16.390625 C 2.796875 -17.523438 2.773438 -18.453125 2.734375 -19.171875 C 2.703125 -19.890625 2.671875 -20.535156 2.640625 -21.109375 L 7.859375 -21.109375 C 7.898438 -20.867188 7.953125 -20.210938 8.015625 -19.140625 C 8.085938 -18.066406 8.125 -17.328125 8.125 -16.921875 L 8.203125 -16.921875 C 8.941406 -18.535156 9.867188 -19.707031 10.984375 -20.4375 C 12.109375 -21.164062 13.441406 -21.53125 14.984375 -21.53125 C 17.222656 -21.53125 18.941406 -20.835938 20.140625 -19.453125 C 21.335938 -18.078125 21.9375 -16.0625 21.9375 -13.40625 L 21.9375 0 Z M 16.46875 0 "/></g></g></g><g fill="#000000" fill-opacity="1"><g transform="translate(655.954856, 328.348048)"><g><path d="M 11.59375 0.390625 C 8.394531 0.390625 5.921875 -0.5625 4.171875 -2.46875 C 2.429688 -4.375 1.5625 -7.03125 1.5625 -10.4375 C 1.5625 -13.925781 2.4375 -16.640625 4.1875 -18.578125 C 5.945312 -20.523438 8.441406 -21.5 11.671875 -21.5 C 14.148438 -21.5 16.203125 -20.875 17.828125 -19.625 C 19.460938 -18.382812 20.488281 -16.664062 20.90625 -14.46875 L 15.375 -14.1875 C 15.21875 -15.269531 14.828125 -16.128906 14.203125 -16.765625 C 13.578125 -17.410156 12.691406 -17.734375 11.546875 -17.734375 C 8.722656 -17.734375 7.3125 -15.375 7.3125 -10.65625 C 7.3125 -5.789062 8.75 -3.359375 11.625 -3.359375 C 12.664062 -3.359375 13.535156 -3.6875 14.234375 -4.34375 C 14.941406 -5 15.378906 -5.976562 15.546875 -7.28125 L 21.0625 -7.03125 C 20.863281 -5.582031 20.34375 -4.289062 19.5 -3.15625 C 18.664062 -2.03125 17.566406 -1.15625 16.203125 -0.53125 C 14.835938 0.0820312 13.300781 0.390625 11.59375 0.390625 Z M 11.59375 0.390625 "/></g></g></g><g fill="#000000" fill-opacity="1"><g transform="translate(678.17856, 328.348048)"><g><path d="M 11.4375 0.390625 C 8.257812 0.390625 5.816406 -0.546875 4.109375 -2.421875 C 2.410156 -4.304688 1.5625 -7.050781 1.5625 -10.65625 C 1.5625 -14.144531 2.425781 -16.820312 4.15625 -18.6875 C 5.882812 -20.5625 8.335938 -21.5 11.515625 -21.5 C 14.546875 -21.5 16.859375 -20.492188 18.453125 -18.484375 C 20.054688 -16.472656 20.859375 -13.53125 20.859375 -9.65625 L 20.859375 -9.5 L 7.3125 -9.5 C 7.3125 -7.445312 7.691406 -5.894531 8.453125 -4.84375 C 9.222656 -3.800781 10.304688 -3.28125 11.703125 -3.28125 C 13.648438 -3.28125 14.875 -4.117188 15.375 -5.796875 L 20.546875 -5.34375 C 19.054688 -1.519531 16.019531 0.390625 11.4375 0.390625 Z M 11.4375 -18.046875 C 10.144531 -18.046875 9.148438 -17.597656 8.453125 -16.703125 C 7.765625 -15.804688 7.398438 -14.550781 7.359375 -12.9375 L 15.546875 -12.9375 C 15.441406 -14.644531 15.03125 -15.921875 14.3125 -16.765625 C 13.601562 -17.617188 12.644531 -18.046875 11.4375 -18.046875 Z M 11.4375 -18.046875 "/></g></g></g>
</svg>