<svg xmlns="http://www.w3.org/2000/svg" xmlns:xlink="http://www.w3.org/1999/xlink" width="530" zoomAndPan="magnify" viewBox="0 0 397.5 341.999987" height="456" preserveAspectRatio="xMidYMid meet" version="1.0">
<defs><g/><clipPath id="72cdb7df3e"><path d="M 0 0.214844 L 397 0.214844 L 397 341.785156 L 0 341.785156 Z M 0 0.214844 " clip-rule="nonzero"/></clipPath><clipPath id="731d720090"><path d="M 75.601562 82.429688 L 322 82.429688 L 322 250 L 75.601562 250 Z M 75.601562 82.429688 " clip-rule="nonzero"/></clipPath><clipPath id="5f8712e983"><path d="M 103.351562 82.429688 L 294.109375 82.429688 C 309.4375 82.429688 321.859375 94.855469 321.859375 110.179688 L 321.859375 223.164062 C 321.859375 238.488281 309.4375 250.914062 294.109375 250.914062 L 103.351562 250.914062 C 88.023438 250.914062 75.601562 238.488281 75.601562 223.164062 L 75.601562 110.179688 C 75.601562 94.855469 88.023438 82.429688 103.351562 82.429688 " clip-rule="nonzero"/></clipPath><clipPath id="4e8a7c7289"><path d="M 75.601562 82.429688 L 321.601562 82.429688 L 321.601562 251.179688 L 75.601562 251.179688 Z M 75.601562 82.429688 " clip-rule="nonzero"/></clipPath><clipPath id="d369db2e95"><path d="M 103.320312 82.429688 L 293.878906 82.429688 C 309.1875 82.429688 321.601562 94.875 321.601562 110.222656 L 321.601562 223.386719 C 321.601562 238.734375 309.1875 251.179688 293.878906 251.179688 L 103.320312 251.179688 C 88.011719 251.179688 75.601562 238.734375 75.601562 223.386719 L 75.601562 110.222656 C 75.601562 94.875 88.011719 82.429688 103.320312 82.429688 " clip-rule="nonzero"/></clipPath></defs><g clip-path="url(#72cdb7df3e)"><path fill="#ffffff" d="M 0 0.214844 L 397.5 0.214844 L 397.5 349.714844 L 0 349.714844 Z M 0 0.214844 " fill-opacity="1" fill-rule="nonzero"/><path fill="#ffffff" d="M 0 0.214844 L 397.5 0.214844 L 397.5 342.214844 L 0 342.214844 Z M 0 0.214844 " fill-opacity="1" fill-rule="nonzero"/></g><g clip-path="url(#731d720090)"><g clip-path="url(#5f8712e983)"><path fill="#ffffff" d="M 75.601562 82.429688 L 322.398438 82.429688 L 322.398438 249.492188 L 75.601562 249.492188 Z M 75.601562 82.429688 " fill-opacity="1" fill-rule="nonzero"/></g></g><g clip-path="url(#4e8a7c7289)"><g clip-path="url(#d369db2e95)"><path stroke-linecap="butt" transform="matrix(0.749215, 0, 0, 0.7512, 75.599811, 82.430043)" fill="none" stroke-linejoin="miter" d="M 36.999405 -0.000472994 L 291.343808 -0.000472994 C 311.776658 -0.000472994 328.346089 16.566774 328.346089 36.997632 L 328.346089 187.642058 C 328.346089 208.072915 311.776658 224.640162 291.343808 224.640162 L 36.999405 224.640162 C 16.566555 224.640162 0.00233812 208.072915 0.00233812 187.642058 L 0.00233812 36.997632 C 0.00233812 16.566774 16.566555 -0.000472994 36.999405 -0.000472994 " stroke="#09afb1" stroke-width="18" stroke-opacity="1" stroke-miterlimit="4"/></g></g><g fill="#000000" fill-opacity="1"><g transform="translate(92.342011, 223.026176)"><g><path d="M 22.40625 0.953125 C 19.3125 0.953125 16.828125 -0.00390625 14.953125 -1.921875 C 13.085938 -3.835938 12.15625 -6.34375 12.15625 -9.4375 L 12.15625 -103.046875 C 12.15625 -106.140625 13.035156 -108.535156 14.796875 -110.234375 C 16.554688 -111.941406 18.984375 -112.796875 22.078125 -112.796875 L 78.234375 -112.796875 C 84.742188 -112.796875 88 -110.023438 88 -104.484375 C 88 -99.035156 84.742188 -96.3125 78.234375 -96.3125 L 32.484375 -96.3125 L 32.484375 -65.59375 L 75.046875 -65.59375 C 81.546875 -65.59375 84.796875 -62.820312 84.796875 -57.28125 C 84.796875 -51.84375 81.546875 -49.125 75.046875 -49.125 L 32.484375 -49.125 L 32.484375 -9.4375 C 32.484375 -6.34375 31.578125 -3.835938 29.765625 -1.921875 C 27.953125 -0.00390625 25.5 0.953125 22.40625 0.953125 Z M 22.40625 0.953125 "/></g></g></g><g fill="#09afb1" fill-opacity="1"><g transform="translate(182.892788, 223.026176)"><g><path d="M 94.234375 -108.3125 C 95.941406 -111.945312 98.769531 -113.765625 102.71875 -113.765625 C 105.382812 -113.765625 107.785156 -112.910156 109.921875 -111.203125 C 112.054688 -109.492188 113.125 -107.359375 113.125 -104.796875 C 113.125 -103.628906 112.800781 -102.296875 112.15625 -100.796875 L 67.84375 -5.4375 C 66.882812 -3.414062 65.414062 -1.84375 63.4375 -0.71875 C 61.46875 0.394531 59.363281 0.953125 57.125 0.953125 C 54.882812 0.953125 52.773438 0.394531 50.796875 -0.71875 C 48.828125 -1.84375 47.363281 -3.414062 46.40625 -5.4375 L 2.234375 -100.796875 C 1.597656 -102.296875 1.28125 -103.578125 1.28125 -104.640625 C 1.28125 -107.304688 2.375 -109.492188 4.5625 -111.203125 C 6.75 -112.910156 9.226562 -113.765625 12 -113.765625 C 13.8125 -113.765625 15.488281 -113.3125 17.03125 -112.40625 C 18.582031 -111.5 19.785156 -110.132812 20.640625 -108.3125 L 57.4375 -26.5625 Z M 94.234375 -108.3125 "/></g></g></g>
</svg>